<?xml version="1.0" encoding="UTF-8"?>
<svg id="Layer_2" data-name="Layer 2" xmlns="http://www.w3.org/2000/svg" viewBox="0 0 151.65 47.89">
  <defs>
    <style>
      .cls-1 {
        fill: #ed1c24;
      }

      .cls-2 {
        fill: #241f21;
      }

      .cls-3 {
        fill: #2a2a86;
      }
    </style>
  </defs>
  <g id="Layer_1-2" data-name="Layer 1">
    <g>
      <path class="cls-1" d="M11.42,0H3.3C1.79,0,.56,1.23.56,2.74v27.45c0,1.65,1.85,2.62,3.21,1.69l5.02-3.45c.17-.12.32-.27.44-.43.28-.36.44-.79.44-1.26v-15.38c-.09-1.8,1.17-2.15,1.99-2.07,1.16.11,2,1.15,2,2.31v7.71c0,.64.63,1.07,1.23.85,4.02-1.43,6.9-5.27,6.9-9.78C21.8,4.65,17.16,0,11.42,0"/>
      <path class="cls-3" d="M41.97,12.39c.62-.47.94-1.18.94-2.13s-.31-1.67-.94-2.15c-.63-.49-1.27-.73-1.94-.73h-4.04v5.72h4.08c.65,0,1.28-.24,1.91-.71M47.76,6.44c.56,1.14.84,2.41.84,3.82s-.28,2.67-.84,3.8c-.56,1.13-1.28,2.03-2.17,2.7-1.79,1.38-3.64,2.07-5.56,2.07h-4.04v3.65c0,.5-.02.87-.05,1.12-.03.25-.13.53-.31.86-.3.58-1.14.87-2.52.87-1.51,0-2.39-.4-2.65-1.2-.13-.36-.19-.93-.19-1.68V4.5c0-.49.01-.87.05-1.11.03-.25.13-.53.31-.86.3-.58,1.14-.87,2.52-.87h6.92c1.9,0,3.74.69,5.53,2.07.88.67,1.6,1.57,2.17,2.72"/>
      <path class="cls-3" d="M59.33,15.75c.82,0,1.23-.35,1.23-1.04,0-.49-.19-.89-.57-1.2-.38-.3-.92-.45-1.62-.45s-1.4.29-2.09.86c-.69.57-1.03,1.18-1.03,1.83h4.07ZM66.16,14.8c0,1.33-.33,2.31-.99,2.94-.66.64-1.38.95-2.18.95h-7.66c0,.6.36,1.11,1.07,1.52.71.41,1.42.61,2.13.61,1.25,0,2.23-.13,2.94-.39l.35-.13c.52-.24.95-.36,1.3-.36.69,0,1.28.48,1.78,1.46.28.58.42,1.08.42,1.49,0,1.92-2.29,2.88-6.89,2.88-1.59,0-3.01-.27-4.25-.82-1.24-.55-2.21-1.28-2.9-2.18-1.36-1.75-2.04-3.7-2.04-5.85,0-2.72.88-4.89,2.64-6.52,1.75-1.63,3.95-2.44,6.58-2.44,3,0,5.19,1.06,6.6,3.17.73,1.12,1.1,2.34,1.1,3.67"/>
      <path class="cls-3" d="M80.06,16.82l3.59,3.62c.78.78,1.16,1.44,1.16,1.99s-.39,1.21-1.16,1.97c-.78.77-1.43,1.15-1.97,1.15s-1.2-.39-1.97-1.16l-3.56-3.59-3.59,3.59c-.78.78-1.43,1.16-1.96,1.16s-1.18-.38-1.97-1.15c-.79-.76-1.18-1.42-1.18-1.97s.39-1.21,1.17-1.99l3.59-3.62-3.59-3.62c-.78-.78-1.17-1.44-1.17-1.99s.4-1.21,1.18-1.99c.79-.78,1.44-1.16,1.97-1.16s1.18.39,1.96,1.16l3.59,3.62,3.56-3.62c.78-.78,1.43-1.16,1.97-1.16s1.2.39,1.97,1.16,1.16,1.44,1.16,1.99-.39,1.21-1.16,1.99l-3.59,3.62Z"/>
      <path class="cls-3" d="M86.59,11.16c0-.5.01-.87.05-1.12.03-.25.12-.53.27-.86.3-.56,1.14-.84,2.52-.84,1.03,0,1.76.18,2.2.55.37.3.56.77.58,1.39.02.22.03.53.03.94v11.32c0,.5-.01.87-.05,1.12-.03.25-.13.53-.3.86-.28.56-1.11.84-2.49.84s-2.19-.29-2.49-.87c-.15-.32-.24-.6-.27-.84-.03-.24-.05-.61-.05-1.13v-11.35ZM91.91,5.16c-.16.31-.45.53-.86.66-.41.13-.95.2-1.63.2s-1.22-.07-1.63-.2c-.41-.13-.7-.35-.86-.68-.16-.32-.26-.61-.29-.86-.03-.25-.05-.62-.05-1.12s.01-.87.05-1.12c.03-.25.12-.52.27-.82.3-.58,1.14-.87,2.52-.87s2.18.29,2.46.87c.17.32.27.61.3.86.04.25.05.62.05,1.11s-.01.87-.05,1.12c-.03.25-.13.53-.29.84"/>
      <path class="cls-3" d="M106.55,12.39c.62-.47.94-1.18.94-2.13s-.31-1.67-.94-2.15c-.63-.49-1.27-.73-1.94-.73h-4.04v5.72h4.08c.65,0,1.28-.24,1.91-.71M112.33,6.44c.56,1.14.84,2.41.84,3.82s-.28,2.67-.84,3.8c-.56,1.13-1.28,2.03-2.17,2.7-1.79,1.38-3.64,2.07-5.56,2.07h-4.04v3.65c0,.5-.02.87-.05,1.12-.03.25-.13.53-.31.86-.3.58-1.14.87-2.52.87-1.51,0-2.39-.4-2.65-1.2-.13-.36-.19-.93-.19-1.68V4.5c0-.49.01-.87.05-1.11.03-.25.13-.53.31-.86.3-.58,1.14-.87,2.52-.87h6.92c1.9,0,3.74.69,5.53,2.07.88.67,1.6,1.57,2.17,2.72"/>
      <path class="cls-3" d="M120.45,16.85c0,.71.28,1.35.84,1.92.56.57,1.24.86,2.04.86s1.46-.29,1.99-.87c.53-.58.79-1.22.79-1.92s-.25-1.35-.76-1.96c-.5-.6-1.18-.9-2.04-.9s-1.54.3-2.07.9c-.53.6-.79,1.26-.79,1.97M126.33,10.13c.13-1.21.98-1.81,2.55-1.81.84,0,1.47.07,1.87.2.41.13.7.35.86.68.16.32.26.61.29.86.03.25.05.62.05,1.12v11.32c0,.5-.02.87-.05,1.12-.03.25-.13.53-.28.86-.3.56-1.04.84-2.21.84s-1.96-.15-2.36-.44c-.4-.29-.63-.72-.69-1.28-.8,1.14-2.13,1.72-3.99,1.72s-3.6-.85-5.19-2.55c-1.6-1.7-2.4-3.68-2.4-5.93s.8-4.22,2.41-5.92c1.6-1.69,3.37-2.54,5.29-2.54.73,0,1.4.13,2,.39.6.26,1.02.5,1.26.73.24.23.43.45.58.66"/>
      <path class="cls-3" d="M149.75,8.51c1.27.56,1.91,1.24,1.91,2.04,0,.39-.09.76-.26,1.1-.17.35-.26.53-.26.55l-8.47,18.95c-.17.41-.32.72-.44.94-.12.21-.31.42-.57.61-.26.19-.58.29-.97.29s-.96-.16-1.71-.49c-1.27-.56-1.91-1.23-1.91-2,0-.52,1.03-2.99,3.1-7.41l-6.43-10.83c-.43-.71-.65-1.24-.65-1.59,0-.69.58-1.38,1.75-2.07.73-.43,1.3-.65,1.71-.65s.74.09,1,.26c.26.17.45.35.57.53.12.18.71,1.19,1.78,3.01,1.07,1.82,2.09,3.52,3.05,5.09.11-.34.69-1.68,1.75-3.99,1.06-2.32,1.62-3.55,1.7-3.7.07-.15.2-.33.37-.55.28-.37.67-.55,1.18-.55s1.1.15,1.8.45"/>
      <path class="cls-2" d="M.52,40.94h3.98c.15,0,.26.02.34.05.07.04.12.09.14.17.02.08.04.18.04.3s-.01.22-.04.3c-.02.07-.06.12-.12.15-.09.04-.21.06-.37.06h-1.37v3.6c0,.11,0,.19-.01.24,0,.05-.03.11-.06.18-.03.07-.1.12-.19.15-.09.03-.21.04-.36.04s-.26-.02-.35-.04c-.09-.03-.15-.08-.19-.15-.04-.07-.06-.13-.06-.19,0-.05-.01-.14-.01-.25v-3.6H.52c-.15,0-.26-.02-.34-.05s-.12-.09-.14-.17c-.02-.08-.04-.18-.04-.3s.01-.22.04-.3c.02-.07.06-.12.12-.15.08-.04.21-.06.37-.06"/>
      <path class="cls-2" d="M7.51,42.44c.48,0,.88.18,1.19.54.32.36.48.81.48,1.33v1.26c0,.11,0,.19-.01.25,0,.05-.03.12-.07.19-.06.12-.25.19-.55.19s-.47-.06-.54-.19c-.04-.07-.06-.14-.07-.19,0-.06-.01-.14-.01-.26v-1.25c0-.2-.06-.35-.16-.46-.11-.11-.25-.16-.42-.16s-.32.05-.45.15c-.13.1-.2.22-.22.35v1.39c0,.11,0,.19-.01.25,0,.05-.03.12-.07.19-.06.12-.25.19-.55.19s-.49-.07-.55-.19c-.03-.07-.05-.13-.06-.19,0-.05-.01-.14-.01-.25v-4.28c0-.11,0-.19.01-.25,0-.05.03-.12.06-.18.07-.13.25-.19.56-.19s.48.06.54.19c.04.07.06.13.07.19,0,.05.01.14.01.25v1.58c.24-.29.52-.44.84-.44"/>
      <path class="cls-2" d="M11.87,44.07c.18,0,.27-.08.27-.23,0-.11-.04-.2-.12-.27-.08-.07-.2-.1-.36-.1s-.31.06-.46.19c-.15.13-.23.26-.23.41h.9ZM13.38,43.86c0,.29-.07.51-.22.65-.15.14-.31.21-.48.21h-1.7c0,.13.08.25.24.34.16.09.31.14.47.14.28,0,.49-.03.65-.09l.08-.03c.11-.05.21-.08.29-.08.15,0,.28.11.39.32.06.13.09.24.09.33,0,.43-.51.64-1.53.64-.35,0-.67-.06-.94-.18-.27-.12-.49-.28-.64-.48-.3-.39-.45-.82-.45-1.3,0-.6.19-1.08.58-1.44.39-.36.88-.54,1.46-.54.66,0,1.15.23,1.46.7.16.25.24.52.24.81"/>
      <path class="cls-2" d="M19.14,40.95c.11,0,.19,0,.25.01.06,0,.12.03.19.07.07.04.12.1.15.19s.04.21.04.36-.01.28-.04.37c-.03.09-.08.15-.15.19-.07.04-.13.06-.19.07-.06,0-.14.01-.26.01h-2.19v.72h1.41c.12,0,.2,0,.25.01.06,0,.12.03.19.07.12.07.19.26.19.57,0,.33-.09.53-.27.59-.08.02-.2.03-.36.03h-1.4v1.35c0,.11,0,.2-.01.25,0,.05-.03.11-.07.19-.07.13-.25.19-.56.19-.33,0-.53-.09-.59-.27-.03-.08-.04-.2-.04-.36v-3.98c0-.24.05-.41.14-.5.09-.09.26-.13.51-.13h2.82Z"/>
      <path class="cls-2" d="M21.47,46.18c-.48,0-.88-.18-1.2-.55-.32-.36-.48-.81-.48-1.34v-1.25c0-.11,0-.2.01-.25,0-.05.03-.11.06-.19.07-.13.25-.19.56-.19.33,0,.53.09.59.27.03.08.04.2.04.37v1.25c0,.2.06.35.17.46.11.11.26.16.45.16s.34-.06.46-.17c.12-.11.18-.26.18-.45v-1.27c0-.11,0-.19.01-.25,0-.05.03-.12.07-.19.06-.12.25-.19.55-.19s.49.06.55.19c.03.07.05.14.06.19,0,.05.01.14.01.25v2.54c0,.1,0,.18-.01.24,0,.05-.03.11-.07.18-.07.12-.25.19-.55.19s-.47-.06-.54-.17c-.05-.08-.07-.18-.07-.29-.02.03-.06.08-.13.14-.07.06-.13.11-.19.16-.16.11-.34.16-.53.16"/>
      <path class="cls-2" d="M26.33,43.69l-.47-.03v.99c0,.13.02.22.06.28s.12.09.23.09.2,0,.26.01c.06,0,.12.03.19.07.11.06.17.22.17.48,0,.3-.07.48-.2.55-.07.03-.13.05-.19.06-.05,0-.14.01-.24.01-.5,0-.88-.11-1.13-.34-.26-.22-.39-.6-.39-1.14v-1.06c-.09.02-.19.02-.29.02s-.19-.04-.26-.12c-.07-.08-.1-.22-.1-.41s.01-.34.03-.43c.02-.09.06-.15.1-.19.08-.06.17-.09.29-.09l.24.03v-.74c0-.11,0-.19.01-.24,0-.05.03-.11.07-.17.06-.12.25-.18.55-.18.32,0,.52.09.58.26.02.08.04.2.04.37v.7c.21-.02.37-.03.48-.03s.19,0,.24.01c.06,0,.12.03.19.07.12.06.19.25.19.55s-.07.49-.19.55c-.07.03-.14.05-.19.06-.06,0-.14,0-.25,0"/>
      <path class="cls-2" d="M29.02,46.18c-.48,0-.88-.18-1.2-.55-.32-.36-.48-.81-.48-1.34v-1.25c0-.11,0-.2.01-.25,0-.05.03-.11.06-.19.07-.13.25-.19.56-.19.33,0,.53.09.59.27.03.08.04.2.04.37v1.25c0,.2.06.35.17.46.11.11.26.16.45.16s.34-.06.46-.17c.12-.11.18-.26.18-.45v-1.27c0-.11,0-.19.01-.25,0-.05.03-.12.07-.19.06-.12.25-.19.55-.19s.49.06.55.19c.03.07.05.14.06.19,0,.05.01.14.01.25v2.54c0,.1,0,.18-.01.24,0,.05-.03.11-.07.18-.07.12-.25.19-.55.19s-.47-.06-.54-.17c-.05-.08-.07-.18-.07-.29-.02.03-.06.08-.13.14-.07.06-.13.11-.19.16-.16.11-.34.16-.53.16"/>
      <path class="cls-2" d="M34.25,42.47c.09.03.17.08.23.15.06.07.09.18.09.33s-.04.32-.14.5c-.09.18-.22.27-.39.27-.09,0-.17-.02-.25-.06-.08-.04-.18-.06-.31-.06s-.25.04-.36.14c-.11.09-.17.2-.17.33v1.5c0,.11,0,.19-.01.25,0,.05-.03.12-.07.19-.07.12-.26.19-.56.19-.23,0-.39-.04-.49-.12-.08-.07-.12-.17-.13-.31v-2.72c0-.11,0-.19.01-.25,0-.05.03-.11.06-.18.07-.13.25-.19.56-.19.29,0,.47.05.54.16.05.08.08.16.08.24.02-.03.06-.07.1-.12.04-.05.14-.11.29-.19s.28-.12.39-.12.21,0,.28.02c.08.01.16.03.25.06"/>
      <path class="cls-2" d="M36.88,44.07c.18,0,.27-.08.27-.23,0-.11-.04-.2-.12-.27-.08-.07-.2-.1-.36-.1s-.31.06-.46.19c-.15.13-.23.26-.23.41h.9ZM38.39,43.86c0,.29-.07.51-.22.65-.15.14-.31.21-.48.21h-1.7c0,.13.08.25.24.34.16.09.31.14.47.14.28,0,.49-.03.65-.09l.08-.03c.11-.05.21-.08.29-.08.15,0,.28.11.39.32.06.13.09.24.09.33,0,.43-.51.64-1.53.64-.35,0-.67-.06-.94-.18-.27-.12-.49-.28-.64-.48-.3-.39-.45-.82-.45-1.3,0-.6.19-1.08.58-1.44.39-.36.88-.54,1.46-.54.66,0,1.15.23,1.46.7.16.25.24.52.24.81"/>
      <path class="cls-2" d="M42.06,44.83c.15.12.31.18.47.18s.32-.06.47-.18c.16-.12.24-.29.24-.53s-.08-.41-.22-.52c-.15-.11-.31-.17-.48-.17s-.33.06-.48.18c-.15.12-.22.29-.22.53s.08.41.23.52M41.16,42.9c.4-.37.86-.56,1.38-.56s.97.18,1.37.55c.4.37.59.84.59,1.41,0,.4-.1.75-.31,1.06-.21.31-.46.53-.75.68-.29.15-.6.22-.91.22s-.62-.08-.92-.23c-.3-.16-.54-.38-.75-.69-.2-.3-.31-.64-.31-1.03,0-.57.2-1.05.6-1.42"/>
      <path class="cls-2" d="M47.04,42.43c.33,0,.52.09.58.27.03.09.04.21.04.36s-.02.27-.05.36-.08.15-.15.19c-.1.06-.25.08-.44.08l-.46-.03v1.92c0,.18-.02.32-.07.41-.05.09-.11.15-.21.17-.09.03-.21.04-.36.04s-.27-.02-.35-.05c-.09-.03-.15-.08-.19-.15-.04-.07-.06-.13-.07-.19,0-.06-.01-.14-.01-.25v-1.9h-.26c-.12-.01-.21-.04-.26-.09-.09-.09-.14-.27-.14-.52,0-.39.14-.59.42-.59h.24v-.38c0-.37.13-.7.39-1,.26-.3.64-.45,1.14-.45.11,0,.19,0,.25.01.06,0,.12.03.19.07.13.06.19.24.19.55,0,.23-.04.39-.12.49-.07.08-.17.12-.31.13h-.2c-.18,0-.26.06-.26.18v.39l.47-.04Z"/>
      <path class="cls-2" d="M49.94,45.46c-.12-.15-.19-.29-.19-.41s.1-.28.31-.48c.12-.11.25-.17.38-.17s.32.12.56.36c.07.08.16.16.29.23.12.08.24.11.34.11.44,0,.67-.18.67-.54,0-.11-.06-.2-.18-.28-.12-.07-.27-.13-.46-.16-.18-.03-.38-.09-.59-.16-.21-.07-.41-.16-.59-.26-.18-.1-.33-.26-.46-.48-.12-.22-.18-.48-.18-.78,0-.42.16-.79.47-1.1.31-.31.74-.47,1.28-.47.29,0,.55.04.78.11.24.07.4.15.49.23l.18.14c.15.14.22.26.22.35s-.06.23-.17.39c-.16.24-.33.36-.5.36-.1,0-.22-.05-.37-.14-.01,0-.04-.03-.08-.07-.04-.04-.08-.07-.11-.09-.1-.06-.23-.09-.38-.09s-.28.04-.39.11c-.1.07-.15.18-.15.31s.06.24.18.32c.12.08.27.14.45.16.18.03.38.07.59.13.22.06.41.13.59.22.18.09.33.23.46.45.12.21.18.47.18.78s-.06.58-.19.82c-.12.24-.29.42-.49.55-.39.25-.8.38-1.24.38-.22,0-.44-.03-.64-.08-.2-.05-.36-.12-.49-.2-.25-.15-.43-.3-.53-.45l-.06-.08Z"/>
      <path class="cls-2" d="M56.17,44.07c.18,0,.27-.08.27-.23,0-.11-.04-.2-.12-.27-.08-.07-.2-.1-.36-.1s-.31.06-.46.19c-.15.13-.23.26-.23.41h.9ZM57.68,43.86c0,.29-.07.51-.22.65-.15.14-.31.21-.48.21h-1.7c0,.13.08.25.24.34.16.09.31.14.47.14.28,0,.49-.03.65-.09l.08-.03c.11-.05.21-.08.29-.08.15,0,.28.11.39.32.06.13.09.24.09.33,0,.43-.51.64-1.53.64-.35,0-.67-.06-.94-.18-.27-.12-.49-.28-.64-.48-.3-.39-.45-.82-.45-1.3,0-.6.19-1.08.58-1.44.39-.36.88-.54,1.46-.54.66,0,1.15.23,1.46.7.16.25.24.52.24.81"/>
      <path class="cls-2" d="M59.29,44.31c0,.16.06.3.19.43.12.13.27.19.45.19s.32-.06.44-.19c.12-.13.18-.27.18-.43s-.06-.3-.17-.43c-.11-.13-.26-.2-.45-.2s-.34.07-.46.2c-.12.13-.18.28-.18.44M60.59,42.82c.03-.27.22-.4.56-.4.19,0,.33.01.42.04.09.03.15.08.19.15.04.07.06.13.06.19,0,.05.01.14.01.25v2.51c0,.11,0,.19-.01.25,0,.05-.03.12-.06.19-.07.12-.23.19-.49.19s-.44-.03-.52-.1c-.09-.07-.14-.16-.15-.28-.18.25-.47.38-.88.38s-.8-.19-1.15-.57c-.35-.38-.53-.82-.53-1.31s.18-.94.53-1.31c.35-.38.75-.56,1.17-.56.16,0,.31.03.44.09.13.06.23.11.28.16.05.05.1.1.13.15"/>
      <path class="cls-2" d="M63.64,42.92c.22-.34.49-.51.81-.51.49,0,.85.21,1.09.62.05-.07.12-.15.19-.22.07-.08.19-.16.35-.26.16-.09.33-.14.5-.14.38,0,.7.15.96.44.26.29.39.78.39,1.46v1.25c0,.11,0,.19-.01.25,0,.05-.03.12-.07.19-.06.13-.25.19-.55.19s-.48-.07-.55-.2c-.03-.07-.05-.14-.06-.19,0-.05-.01-.14-.01-.25v-1.25c0-.41-.15-.62-.44-.62-.17,0-.28.05-.34.16-.06.11-.09.27-.09.47v1.25c0,.11,0,.2-.01.25,0,.05-.03.12-.07.19-.07.13-.25.19-.56.19s-.48-.07-.55-.2c-.03-.07-.05-.14-.06-.19,0-.05-.01-.14-.01-.25v-1.25c0-.41-.15-.62-.44-.62s-.43.21-.43.62v1.27c0,.11,0,.19-.01.25,0,.05-.03.12-.07.19-.07.12-.26.19-.56.19s-.48-.07-.55-.19c-.03-.07-.05-.13-.06-.19,0-.05-.01-.14-.01-.25v-2.52c0-.11,0-.19.01-.25,0-.05.03-.12.07-.18.07-.13.24-.19.51-.19s.44.04.52.13c.08.09.12.21.12.37"/>
      <path class="cls-2" d="M68.51,41.28c0-.11,0-.19.01-.25,0-.05.03-.12.06-.19.07-.13.25-.19.56-.19s.47.06.54.19c.04.07.06.14.07.19,0,.06.01.14.01.25v3.32c0,.17.01.28.04.32.03.05.09.07.19.07s.16,0,.2.01c.03,0,.07.03.12.06.1.06.14.23.14.51,0,.3-.05.48-.14.55-.12.09-.42.1-.89.04-.37-.05-.61-.17-.72-.37-.13-.23-.2-.61-.2-1.12v-3.41Z"/>
      <path class="cls-2" d="M72.91,44.07c.18,0,.27-.08.27-.23,0-.11-.04-.2-.12-.27-.08-.07-.2-.1-.36-.1s-.31.06-.46.19c-.15.13-.23.26-.23.41h.9ZM74.42,43.86c0,.29-.07.51-.22.65-.15.14-.31.21-.48.21h-1.7c0,.13.08.25.24.34.16.09.32.14.47.14.28,0,.49-.03.65-.09l.08-.03c.11-.05.21-.08.29-.08.15,0,.28.11.39.32.06.13.09.24.09.33,0,.43-.51.64-1.53.64-.35,0-.67-.06-.94-.18-.27-.12-.49-.28-.64-.48-.3-.39-.45-.82-.45-1.3,0-.6.19-1.08.58-1.44.39-.36.88-.54,1.46-.54.66,0,1.15.23,1.46.7.16.25.24.52.24.81"/>
      <path class="cls-2" d="M74.92,45.86c-.09-.06-.14-.15-.14-.27s.09-.31.27-.57c.05-.08.14-.12.25-.12s.28.06.48.17c.2.12.38.18.54.18.29,0,.44-.06.44-.17,0-.09-.16-.16-.48-.2-.3-.04-.6-.16-.9-.34-.14-.08-.25-.22-.34-.4-.09-.18-.14-.4-.14-.65,0-.76.52-1.13,1.55-1.13.34,0,.69.08,1.04.24.17.08.25.17.25.29s-.05.25-.16.42c-.1.17-.21.25-.32.25-.06,0-.16-.04-.32-.11s-.32-.11-.51-.11c-.28,0-.42.05-.42.16,0,.14.16.24.49.28.32.03.62.12.92.27.14.07.25.18.35.35.09.16.14.37.14.62s-.05.46-.14.63c-.09.18-.22.31-.39.39-.31.15-.69.22-1.15.22s-.9-.13-1.33-.4"/>
      <path class="cls-2" d="M78.42,45.86c-.09-.06-.14-.15-.14-.27s.09-.31.27-.57c.05-.08.14-.12.25-.12s.28.06.48.17c.2.12.38.18.54.18.29,0,.44-.06.44-.17,0-.09-.16-.16-.48-.2-.3-.04-.6-.16-.9-.34-.14-.08-.25-.22-.34-.4-.09-.18-.14-.4-.14-.65,0-.76.52-1.13,1.55-1.13.34,0,.69.08,1.04.24.17.08.25.17.25.29s-.05.25-.16.42c-.1.17-.21.25-.32.25-.06,0-.16-.04-.32-.11s-.32-.11-.51-.11c-.28,0-.42.05-.42.16,0,.14.16.24.49.28.32.03.62.12.92.27.14.07.25.18.35.35.09.16.14.37.14.62s-.05.46-.14.63c-.09.18-.22.31-.39.39-.31.15-.69.22-1.15.22s-.9-.13-1.33-.4"/>
      <path class="cls-2" d="M86.6,44.54c.28-.26.41-.58.41-.96s-.13-.71-.4-.97c-.27-.26-.59-.39-.95-.39h-.69v2.71h.7c.34,0,.65-.13.93-.38M84.34,40.94h1.32c.69,0,1.3.26,1.83.76.53.5.79,1.11.79,1.84s-.26,1.35-.77,1.87c-.51.52-1.13.78-1.87.78h-1.31c-.29,0-.47-.06-.54-.18-.06-.1-.09-.25-.09-.46v-3.98c0-.11,0-.2.01-.25,0-.05.03-.11.07-.19.07-.13.25-.19.56-.19"/>
      <path class="cls-2" d="M88.74,43.05c0-.11,0-.19.01-.25,0-.06.03-.12.06-.19.07-.12.25-.19.56-.19.23,0,.39.04.49.12.08.07.12.17.13.31,0,.05,0,.12,0,.21v2.51c0,.11,0,.19-.01.25,0,.05-.03.12-.07.19-.06.12-.25.19-.55.19s-.49-.06-.55-.19c-.03-.07-.05-.13-.06-.19,0-.05-.01-.14-.01-.25v-2.51ZM89.92,41.72c-.04.07-.1.12-.19.15-.09.03-.21.04-.36.04s-.27-.01-.36-.04c-.09-.03-.15-.08-.19-.15-.04-.07-.06-.14-.06-.19,0-.05-.01-.14-.01-.25s0-.19.01-.25c0-.05.03-.11.06-.18.07-.13.25-.19.56-.19s.48.06.54.19c.04.07.06.14.07.19,0,.05.01.14.01.25s0,.19-.01.25c0,.05-.03.12-.06.19"/>
      <path class="cls-2" d="M91.69,44.26c0,.15.06.29.18.42.12.12.27.19.44.19s.32-.06.43-.19c.12-.13.17-.27.17-.42s-.05-.29-.16-.42c-.11-.13-.26-.2-.45-.2s-.34.06-.45.19c-.11.13-.17.27-.17.43M92.96,45.72c-.18.24-.47.36-.87.36s-.77-.18-1.11-.55c-.35-.37-.52-.79-.52-1.28s.17-.92.52-1.28c.35-.37.73-.55,1.15-.55.16,0,.31.03.44.09.13.06.23.11.28.16.05.05.09.1.12.14.01-.13.06-.23.15-.3.08-.07.22-.1.4-.1s.32.01.41.04.15.08.18.15c.04.07.06.13.06.18,0,.05.01.13.01.24v2.96c0,.55-.19.99-.57,1.33-.38.34-.81.51-1.29.51-.36,0-.71-.09-1.04-.27-.33-.18-.49-.34-.49-.48,0-.19.07-.35.22-.49.09-.1.16-.17.21-.21.05-.04.11-.06.18-.06s.14.03.21.09c.23.18.48.26.74.26.18,0,.33-.07.45-.21.11-.14.17-.32.17-.52v-.22Z"/>
      <path class="cls-2" d="M94.76,43.05c0-.11,0-.19.01-.25,0-.06.03-.12.06-.19.07-.12.25-.19.56-.19.23,0,.39.04.49.12.08.07.12.17.13.31,0,.05,0,.12,0,.21v2.51c0,.11,0,.19-.01.25,0,.05-.03.12-.07.19-.06.12-.25.19-.55.19s-.49-.06-.55-.19c-.03-.07-.05-.13-.06-.19,0-.05-.01-.14-.01-.25v-2.51ZM95.94,41.72c-.04.07-.1.12-.19.15-.09.03-.21.04-.36.04s-.27-.01-.36-.04c-.09-.03-.15-.08-.19-.15-.04-.07-.06-.14-.06-.19,0-.05-.01-.14-.01-.25s0-.19.01-.25c0-.05.03-.11.06-.18.07-.13.25-.19.56-.19s.48.06.54.19c.04.07.06.14.07.19,0,.05.01.14.01.25s0,.19-.01.25c0,.05-.03.12-.06.19"/>
      <path class="cls-2" d="M98.78,43.69l-.47-.03v.99c0,.13.02.22.06.28s.12.09.23.09.2,0,.26.01c.06,0,.12.03.19.07.11.06.17.22.17.48,0,.3-.07.48-.2.55-.07.03-.13.05-.19.06-.05,0-.13.01-.24.01-.5,0-.88-.11-1.13-.34-.26-.22-.39-.6-.39-1.14v-1.06c-.09.02-.19.02-.29.02s-.19-.04-.26-.12c-.07-.08-.1-.22-.1-.41s.01-.34.04-.43c.02-.09.06-.15.1-.19.08-.06.17-.09.29-.09l.24.03v-.74c0-.11,0-.19.01-.24,0-.05.03-.11.07-.17.06-.12.25-.18.55-.18.32,0,.52.09.58.26.02.08.04.2.04.37v.7c.21-.02.37-.03.48-.03s.19,0,.24.01c.05,0,.12.03.19.07.12.06.19.25.19.55s-.07.49-.19.55c-.07.03-.14.05-.19.06-.06,0-.14,0-.25,0"/>
      <path class="cls-2" d="M100.95,44.31c0,.16.06.3.19.43.12.13.27.19.45.19s.32-.06.44-.19c.12-.13.18-.27.18-.43s-.06-.3-.17-.43c-.11-.13-.26-.2-.45-.2s-.34.07-.46.2c-.12.13-.18.28-.18.44M102.25,42.82c.03-.27.22-.4.56-.4.19,0,.33.01.42.04.09.03.15.08.19.15.04.07.06.13.06.19,0,.05.01.14.01.25v2.51c0,.11,0,.19-.01.25,0,.05-.03.12-.06.19-.07.12-.23.19-.49.19s-.43-.03-.52-.1c-.09-.07-.14-.16-.15-.28-.18.25-.47.38-.88.38s-.8-.19-1.15-.57-.53-.82-.53-1.31.18-.94.53-1.31c.35-.38.75-.56,1.17-.56.16,0,.31.03.44.09.13.06.23.11.28.16.05.05.1.1.13.15"/>
      <path class="cls-2" d="M104.07,41.28c0-.11,0-.19.01-.25,0-.05.03-.12.06-.19.07-.13.25-.19.56-.19s.47.06.54.19c.04.07.06.14.07.19,0,.06.01.14.01.25v3.32c0,.17.01.28.04.32.03.05.09.07.19.07s.16,0,.2.01c.03,0,.07.03.12.06.1.06.14.23.14.51,0,.3-.05.48-.14.55-.12.09-.42.1-.89.04-.37-.05-.61-.17-.72-.37-.13-.23-.2-.61-.2-1.12v-3.41Z"/>
      <path class="cls-2" d="M110.82,43.33c.14-.11.21-.26.21-.47s-.07-.37-.21-.48c-.14-.11-.28-.16-.43-.16h-.9v1.27h.9c.14,0,.28-.05.42-.16M112.1,42.01c.12.25.19.54.19.85s-.06.59-.19.84c-.12.25-.29.45-.48.6-.4.3-.81.46-1.23.46h-.9v.81c0,.11,0,.19-.01.25,0,.05-.03.12-.07.19-.07.13-.25.19-.56.19-.34,0-.53-.09-.59-.26-.03-.08-.04-.21-.04-.37v-3.98c0-.11,0-.19.01-.25,0-.05.03-.12.07-.19.07-.13.25-.19.56-.19h1.53c.42,0,.83.15,1.22.46.2.15.36.35.48.6"/>
      <path class="cls-2" d="M113.89,44.31c0,.16.06.3.19.43.12.13.27.19.45.19s.32-.06.44-.19c.12-.13.18-.27.18-.43s-.06-.3-.17-.43c-.11-.13-.26-.2-.45-.2s-.34.07-.46.2c-.12.13-.18.28-.18.44M115.2,42.82c.03-.27.22-.4.56-.4.19,0,.33.01.42.04.09.03.15.08.19.15.04.07.06.13.06.19,0,.05.01.14.01.25v2.51c0,.11,0,.19-.01.25,0,.05-.03.12-.06.19-.07.12-.23.19-.49.19s-.43-.03-.52-.1c-.09-.07-.14-.16-.15-.28-.18.25-.47.38-.88.38s-.8-.19-1.15-.57-.53-.82-.53-1.31.18-.94.53-1.31c.35-.38.75-.56,1.17-.56.16,0,.31.03.44.09.13.06.23.11.28.16.05.05.1.1.13.15"/>
      <path class="cls-2" d="M120.38,42.47c.28.12.42.28.42.45,0,.09-.02.17-.06.24-.04.08-.06.12-.06.12l-1.88,4.2c-.04.09-.07.16-.1.21-.03.05-.07.09-.13.14-.06.04-.13.06-.21.06s-.21-.03-.38-.11c-.28-.12-.42-.27-.42-.44,0-.12.23-.66.69-1.64l-1.43-2.4c-.1-.16-.14-.28-.14-.35,0-.15.13-.31.39-.46.16-.1.29-.14.38-.14s.17.02.22.06c.06.04.1.08.12.12.03.04.16.26.39.67.24.4.46.78.68,1.13.02-.08.15-.37.39-.89.23-.51.36-.79.38-.82.02-.03.04-.07.08-.12.06-.08.15-.12.26-.12s.24.03.4.1"/>
      <path class="cls-2" d="M122.32,42.92c.22-.34.49-.51.81-.51.49,0,.85.21,1.09.62.05-.07.12-.15.19-.22.07-.08.19-.16.35-.26.16-.09.33-.14.5-.14.38,0,.7.15.96.44.26.29.39.78.39,1.46v1.25c0,.11,0,.19-.01.25,0,.05-.03.12-.07.19-.06.13-.25.19-.55.19s-.48-.07-.55-.2c-.03-.07-.05-.14-.06-.19,0-.05-.01-.14-.01-.25v-1.25c0-.41-.15-.62-.44-.62-.17,0-.28.05-.34.16-.06.11-.09.27-.09.47v1.25c0,.11,0,.2-.01.25,0,.05-.03.12-.07.19-.07.13-.25.19-.56.19s-.48-.07-.55-.2c-.03-.07-.05-.14-.06-.19,0-.05-.01-.14-.01-.25v-1.25c0-.41-.15-.62-.44-.62s-.43.21-.43.62v1.27c0,.11,0,.19-.01.25s-.03.12-.07.19c-.07.12-.26.19-.56.19s-.48-.07-.55-.19c-.03-.07-.05-.13-.06-.19,0-.05-.01-.14-.01-.25v-2.52c0-.11,0-.19.01-.25,0-.05.03-.12.07-.18.07-.13.24-.19.51-.19s.44.04.52.13c.08.09.12.21.12.37"/>
      <path class="cls-2" d="M129.31,44.07c.18,0,.27-.08.27-.23,0-.11-.04-.2-.12-.27-.08-.07-.2-.1-.36-.1s-.31.06-.46.19c-.15.13-.23.26-.23.41h.9ZM130.82,43.86c0,.29-.07.51-.22.65-.15.14-.31.21-.48.21h-1.7c0,.13.08.25.24.34.16.09.32.14.47.14.28,0,.49-.03.65-.09l.08-.03c.11-.05.21-.08.29-.08.15,0,.28.11.39.32.06.13.09.24.09.33,0,.43-.51.64-1.53.64-.35,0-.67-.06-.94-.18-.27-.12-.49-.28-.64-.48-.3-.39-.45-.82-.45-1.3,0-.6.19-1.08.58-1.44.39-.36.88-.54,1.46-.54.66,0,1.15.23,1.46.7.16.25.24.52.24.81"/>
      <path class="cls-2" d="M133.39,42.42c.48,0,.88.18,1.19.55.32.36.48.81.48,1.34v1.26c0,.11,0,.19-.01.25,0,.05-.03.12-.06.18-.07.13-.25.19-.56.19-.34,0-.53-.09-.59-.27-.03-.08-.04-.2-.04-.36v-1.26c0-.2-.06-.35-.17-.46s-.26-.16-.45-.16-.34.06-.46.17c-.12.11-.18.26-.18.45v1.27c0,.11,0,.19-.01.25,0,.05-.03.12-.07.18-.06.13-.25.19-.55.19s-.49-.06-.55-.19c-.03-.07-.05-.14-.06-.19,0-.05-.01-.14-.01-.25v-2.53c0-.11,0-.18.01-.24,0-.06.03-.12.07-.18.07-.12.25-.18.55-.18s.47.06.54.17c.05.08.07.18.07.29.02-.03.06-.08.13-.14s.13-.11.19-.15c.16-.11.34-.17.54-.17"/>
      <path class="cls-2" d="M137.76,43.69l-.47-.03v.99c0,.13.02.22.06.28s.12.09.23.09.2,0,.26.01c.06,0,.12.03.19.07.11.06.16.22.16.48,0,.3-.07.48-.2.55-.07.03-.13.05-.19.06-.05,0-.13.01-.24.01-.5,0-.88-.11-1.13-.34-.26-.22-.39-.6-.39-1.14v-1.06c-.09.02-.19.02-.29.02s-.19-.04-.26-.12c-.07-.08-.1-.22-.1-.41s.01-.34.04-.43c.02-.09.06-.15.1-.19.08-.06.17-.09.29-.09l.24.03v-.74c0-.11,0-.19.01-.24,0-.05.03-.11.07-.17.06-.12.25-.18.55-.18.32,0,.52.09.58.26.02.08.04.2.04.37v.7c.21-.02.37-.03.48-.03s.19,0,.24.01c.05,0,.12.03.19.07.12.06.19.25.19.55s-.07.49-.19.55c-.07.03-.13.05-.19.06-.06,0-.14,0-.25,0"/>
      <path class="cls-2" d="M138.81,45.86c-.09-.06-.14-.15-.14-.27s.09-.31.27-.57c.05-.08.14-.12.25-.12s.28.06.48.17c.2.12.38.18.54.18.29,0,.44-.06.44-.17,0-.09-.16-.16-.48-.2-.3-.04-.6-.16-.9-.34-.14-.08-.25-.22-.34-.4-.09-.18-.14-.4-.14-.65,0-.76.52-1.13,1.55-1.13.34,0,.69.08,1.04.24.17.08.25.17.25.29s-.05.25-.16.42c-.1.17-.21.25-.32.25-.06,0-.16-.04-.32-.11s-.32-.11-.51-.11c-.28,0-.42.05-.42.16,0,.14.16.24.49.28.32.03.62.12.92.27.14.07.25.18.35.35.09.16.14.37.14.62s-.05.46-.14.63c-.09.18-.22.31-.39.39-.31.15-.69.22-1.15.22s-.9-.13-1.33-.4"/>
      <path class="cls-1" d="M145.77,46.35v-5.7c0-1.12,1.36-1.68,2.15-.89l2.85,2.85c.49.49.49,1.29,0,1.78l-2.85,2.85c-.79.79-2.15.23-2.15-.89"/>
    </g>
  </g>
</svg>